<svg width="48" height="48" fill="none" xmlns="http://www.w3.org/2000/svg"><path d="M8 26c0-9.941 8.059-18 18-18 9.604 0 17.428 7.527 17.95 17 .017-.333.05-.662.05-1 0-11.046-8.954-20-20-20S4 12.954 4 24s8.954 20 20 20c.338 0 .667-.034 1-.05C15.527 43.428 8 35.604 8 26Z" fill="url(#a)"/><path d="M36 27a6.996 6.996 0 0 1-2.371-13.579A14.004 14.004 0 0 0 27.5 12C19.492 12 13 18.716 13 27c0 8.284 6.492 15 14.5 15S42 35.284 42 27c0-1.015-.1-2.006-.286-2.965A6.986 6.986 0 0 1 36 27Z" fill="url(#b)"/><defs><linearGradient id="a" x1="13.998" y1="6.676" x2="32.889" y2="39.396" gradientUnits="userSpaceOnUse"><stop stop-color="#EC8601"/><stop offset=".592" stop-color="#E77101"/><stop offset=".771" stop-color="#E46401"/><stop offset=".941" stop-color="#E36001"/></linearGradient><linearGradient id="b" x1="19.698" y1="14.323" x2="34.577" y2="40.095" gradientUnits="userSpaceOnUse"><stop stop-color="#EC8601"/><stop offset=".592" stop-color="#E77101"/><stop offset=".771" stop-color="#E46401"/><stop offset=".941" stop-color="#E36001"/></linearGradient></defs></svg>